<svg version="1.1" id="Layer_1" xmlns="http://www.w3.org/2000/svg" xmlns:xlink="http://www.w3.org/1999/xlink" x="0px" y="0px"
	 width="100%" viewBox="0 0 360 360" enable-background="new 0 0 360 360" xml:space="preserve">
<path fill="#000000" opacity="1.000000" stroke="none" 
	d="
M236.000000,361.000000 
	C157.360474,361.000000 79.220947,361.000000 1.040709,361.000000 
	C1.040709,241.068817 1.040709,121.137611 1.040709,1.103204 
	C120.889458,1.103204 240.779037,1.103204 360.834290,1.103204 
	C360.834290,120.999809 360.834290,240.999893 360.834290,361.000000 
	C319.471039,361.000000 277.985535,361.000000 236.000000,361.000000 
M256.858215,103.810036 
	C256.858215,103.810036 256.797241,103.865967 256.104736,103.951424 
	C253.432449,105.663666 250.760162,107.375908 248.021591,109.075134 
	C248.021591,109.075134 248.076248,109.115860 247.336426,109.148178 
	C244.866455,110.112839 242.396500,111.077507 239.156250,112.437263 
	C239.107529,131.358032 239.090683,150.278961 238.994919,169.199478 
	C238.954681,177.149704 238.747528,185.099091 238.135895,192.929977 
	C237.808853,192.892731 237.480789,192.870590 236.752869,192.330887 
	C220.175934,175.798248 203.598999,159.265594 186.749893,142.565247 
	C186.395233,142.508377 186.146759,142.656693 185.535126,143.051590 
	C185.535126,143.051590 185.071625,142.966827 184.905136,142.376160 
	C184.694839,142.315720 184.484543,142.255280 184.274246,142.194824 
	C184.190460,142.673447 184.033432,143.152054 184.033386,143.630692 
	C184.030396,169.415802 184.033417,195.200928 184.089249,220.985931 
	C184.090698,221.659073 184.683395,222.330917 185.248993,223.630417 
	C190.342926,228.536438 195.486420,233.392258 200.519333,238.360092 
	C208.385559,246.124634 216.118973,254.024323 224.024338,261.748383 
	C228.014069,265.646576 232.582306,268.998230 236.254639,273.157135 
	C238.195557,275.355194 239.683487,275.913544 242.104172,274.841492 
	C251.371643,270.737305 260.733887,266.828857 269.859253,262.429413 
	C274.794556,260.050018 279.322540,256.825653 284.001740,254.007431 
	C284.001740,254.007431 283.974915,254.038574 284.628784,253.952240 
	C287.759766,252.591934 290.890778,251.231613 294.805634,249.516586 
	C294.864838,248.689789 294.975494,247.863037 294.975922,247.036209 
	C294.997284,205.296829 295.010803,163.557449 295.021210,121.818062 
	C295.023926,110.842842 295.051880,99.867256 294.943939,88.893059 
	C294.934235,87.906509 294.007568,86.928986 292.948669,85.850212 
	C292.303802,86.195992 291.658905,86.541779 290.241058,86.839851 
	C281.282166,91.168884 272.323303,95.497925 262.861420,100.064285 
	C261.569427,100.785217 260.277466,101.506149 258.458466,102.640388 
	C258.254730,102.731712 258.050995,102.823029 257.433472,103.086983 
	C257.172363,103.262993 257.008179,103.504822 256.858215,103.810036 
M176.425919,142.038177 
	C176.009567,142.192902 175.593231,142.347610 174.609131,142.950714 
	C157.609375,159.889725 140.609619,176.828735 123.406715,193.533981 
	C123.297462,193.356339 123.168617,193.194275 123.006721,192.104279 
	C123.010170,167.635468 123.034569,143.166611 122.974617,118.697952 
	C122.970146,116.872978 122.361320,115.049484 121.573624,112.846626 
	C121.049858,112.563141 120.526085,112.279648 119.587173,111.468002 
	C117.344170,110.365112 115.101166,109.262222 112.435783,108.094940 
	C112.435783,108.094940 112.034050,107.949463 111.836723,107.668526 
	C111.530571,107.670258 111.224426,107.671989 110.392937,107.600815 
	C109.985275,107.282738 109.577606,106.964668 108.968307,106.024925 
	C107.970009,105.693779 106.971703,105.362633 105.707497,104.612282 
	C105.516098,104.342194 105.319183,104.076202 104.894974,103.411179 
	C104.697754,103.158798 104.443092,102.996590 103.463371,102.632782 
	C94.163330,97.949738 84.888397,93.215485 75.540131,88.630775 
	C73.853249,87.803467 71.864845,87.590973 69.592400,86.627182 
	C69.001144,86.446396 68.409889,86.265610 67.161140,86.607086 
	C67.107506,116.038498 67.047821,145.469910 67.040421,174.901337 
	C67.040260,175.537643 67.639565,176.174133 68.119049,177.758957 
	C68.066322,182.903091 68.013588,188.047226 67.149734,193.475555 
	C67.108459,211.102966 67.054832,228.730362 67.064606,246.357758 
	C67.065063,247.186310 67.629784,248.014526 67.867157,249.199951 
	C67.867157,249.199951 68.023369,249.527420 68.156013,249.681442 
	C68.156013,249.681442 68.456413,249.945038 68.874237,250.571747 
	C72.517174,252.272797 76.168564,253.956024 79.801430,255.678314 
	C89.880775,260.456848 99.952431,265.251617 110.000122,270.008698 
	C110.000122,270.008698 109.967537,269.983521 110.251251,270.545441 
	C114.004257,272.225128 117.735092,273.958282 121.532036,275.531982 
	C122.167381,275.795288 123.300583,275.636993 123.844307,275.212830 
	C126.922607,272.811188 130.096878,270.476898 132.862915,267.740143 
	C146.739471,254.010513 160.520157,240.183640 174.264557,226.321518 
	C175.480438,225.095200 176.191940,223.368790 177.832550,221.407455 
	C177.872543,211.971573 177.912537,202.535690 177.974228,192.150238 
	C177.966995,184.400162 177.959763,176.650085 178.013626,167.977097 
	C178.012146,160.550888 178.061630,153.123993 177.959198,145.699173 
	C177.942047,144.455933 177.266083,143.221756 176.425919,142.038177 
z"/>
<path fill="#333333" opacity="1.000000" stroke="none" 
	d="
M67.960846,193.191360 
	C68.013588,188.047226 68.066322,182.903091 68.019012,176.829437 
	C67.977646,170.588318 68.036324,165.276718 68.294418,159.725037 
	C68.359344,158.334503 68.224861,157.184067 68.007111,155.606369 
	C67.975281,153.442871 68.026711,151.706604 68.268188,149.763916 
	C68.335533,148.716141 68.212830,147.874802 68.007401,146.569092 
	C67.977852,137.393433 68.031044,128.682129 68.152481,119.855240 
	C68.340149,119.496056 68.296616,119.259781 68.008842,118.573669 
	C67.983902,114.399178 68.040237,110.681847 68.311264,106.644180 
	C68.379242,103.560036 68.232529,100.796227 68.007584,97.581070 
	C67.986885,94.077660 68.044411,91.025612 68.379059,87.963638 
	C69.109344,87.667366 69.562492,87.380997 70.015648,87.094635 
	C71.864845,87.590973 73.853249,87.803467 75.540131,88.630775 
	C84.888397,93.215485 94.163330,97.949738 103.966812,102.920517 
	C104.690887,103.404778 104.906380,103.606789 105.116737,103.814293 
	C105.319183,104.076202 105.516098,104.342194 105.971146,105.127151 
	C107.213181,105.976883 108.191559,106.311737 109.169945,106.646591 
	C109.577606,106.964668 109.985275,107.282738 110.932755,107.713791 
	C111.659729,107.867668 111.846893,107.908569 112.034050,107.949463 
	C112.034050,107.949463 112.435783,108.094940 112.772064,108.446907 
	C115.406342,109.864632 117.704330,110.930397 120.002319,111.996162 
	C120.526085,112.279648 121.049858,112.563141 121.812744,113.239555 
	C122.051857,113.632484 121.931412,114.021873 121.705254,114.366478 
	C121.345421,115.189995 121.095490,115.668739 121.094749,116.147858 
	C121.056061,141.281830 121.012856,166.415909 121.092575,191.549591 
	C121.096657,192.836395 122.174828,194.119781 122.752914,195.404770 
	C123.038567,194.859100 123.324226,194.313431 123.609879,193.767761 
	C140.609619,176.828735 157.609375,159.889725 174.922470,143.075684 
	C175.789963,144.119537 176.344116,145.038422 176.961395,146.304688 
	C176.977264,147.118225 176.930038,147.584366 176.659973,148.394302 
	C176.590210,154.810516 176.743271,160.882950 176.972916,167.275635 
	C177.082581,168.033646 177.115677,168.471405 176.885986,169.241837 
	C176.798080,177.413132 176.972946,185.251724 177.117920,193.460556 
	C177.024490,194.568619 176.960953,195.306458 176.673157,196.381165 
	C176.598343,200.797165 176.747787,204.876297 176.969803,209.301208 
	C176.993271,210.113022 176.944168,210.579041 176.691055,211.281189 
	C176.624420,212.663574 176.761795,213.809845 176.975983,215.336548 
	C177.010818,216.487976 176.968811,217.258987 176.847107,218.140686 
	C176.635941,218.499802 176.682709,218.736969 176.989258,219.300354 
	C177.037842,220.095825 177.004883,220.553833 176.758209,221.120331 
	C176.281906,221.430862 176.102127,221.690292 175.941864,222.028992 
	C175.878540,222.050858 175.993958,221.994308 176.301117,221.968658 
	C176.812927,221.925110 177.017593,221.907196 177.196686,221.911346 
	C177.171097,221.933395 177.137726,221.874664 177.137726,221.874664 
	C176.191940,223.368790 175.480438,225.095200 174.264557,226.321518 
	C160.520157,240.183640 146.739471,254.010513 132.862915,267.740143 
	C130.096878,270.476898 126.922607,272.811188 123.844307,275.212830 
	C123.300583,275.636993 122.167381,275.795288 121.532036,275.531982 
	C117.735092,273.958282 114.004257,272.225128 110.166252,270.235352 
	C110.081253,269.925232 110.027122,270.039978 110.027130,270.039978 
	C99.952431,265.251617 89.880775,260.456848 79.801430,255.678314 
	C76.168564,253.956024 72.517174,252.272797 68.803711,250.183044 
	C68.496582,249.705383 68.259979,249.616394 68.023369,249.527405 
	C68.023369,249.527420 67.867157,249.199951 67.871887,248.563538 
	C67.904686,229.681870 67.932770,211.436615 67.960846,193.191360 
z"/>
<path fill="#333333" opacity="1.000000" stroke="none" 
	d="
M284.034271,253.982498 
	C279.322540,256.825653 274.794556,260.050018 269.859253,262.429413 
	C260.733887,266.828857 251.371643,270.737305 242.104172,274.841492 
	C239.683487,275.913544 238.195557,275.355194 236.254639,273.157135 
	C232.582306,268.998230 228.014069,265.646576 224.024338,261.748383 
	C216.118973,254.024323 208.385559,246.124634 200.519333,238.360092 
	C195.486420,233.392258 190.342926,228.536438 185.150757,223.055679 
	C185.079849,222.308075 185.107193,222.135223 185.351654,221.973938 
	C185.568802,221.985535 186.003601,221.994583 186.036499,222.053528 
	C186.069412,222.112473 186.220993,222.109085 186.220993,222.109085 
	C186.220993,222.109085 185.992676,222.005249 185.889862,221.789337 
	C185.598053,221.300690 185.345551,221.113693 184.956116,220.674240 
	C184.945724,219.880920 185.008759,219.425797 185.159393,218.857849 
	C185.387100,218.481140 185.324799,218.241028 184.993561,217.575455 
	C184.984192,214.403183 185.041367,211.680176 185.322800,208.623444 
	C185.398209,204.541016 185.249329,200.792343 185.027008,196.661346 
	C185.004440,195.505646 185.055313,194.732269 185.184448,193.848511 
	C185.380646,193.485886 185.323608,193.252136 184.998154,192.574036 
	C184.970123,184.394135 185.035538,176.677124 185.180511,168.850372 
	C185.393250,168.491974 185.342804,168.259125 185.029724,167.623199 
	C185.001129,165.788086 185.051590,164.371857 185.325714,162.621704 
	C185.399689,158.539688 185.249985,154.791626 185.027466,150.698746 
	C185.004135,149.889297 185.053635,149.424667 185.187241,148.853363 
	C185.405792,148.498428 185.355392,148.264908 185.051529,147.700333 
	C185.026398,146.888504 185.069855,146.422501 185.198517,145.846390 
	C185.413467,145.476486 185.348099,145.242722 185.005890,144.693970 
	C184.973328,143.890945 185.022476,143.428879 185.071625,142.966827 
	C185.071625,142.966827 185.535126,143.051590 186.025452,142.966217 
	C186.684555,142.831543 186.853317,142.782242 187.022064,142.732956 
	C203.598999,159.265594 220.175934,175.798248 236.957855,192.949707 
	C238.149567,196.730804 239.653717,195.874359 240.575256,193.734436 
	C241.192749,192.300522 240.996719,190.474350 240.998535,188.823532 
	C241.021912,167.548721 241.096100,146.273376 240.966827,124.999313 
	C240.928436,118.682465 240.065445,112.267853 247.851166,109.549446 
	C247.963028,109.510399 248.002808,109.264969 248.076233,109.115860 
	C248.076248,109.115860 248.021591,109.075134 248.424774,109.038788 
	C251.875565,107.897194 255.853790,108.235817 256.797241,103.865967 
	C256.797241,103.865967 256.858215,103.810036 257.039825,103.652328 
	C257.418945,103.289223 257.627563,103.095795 257.847260,102.914337 
	C258.050995,102.823029 258.254730,102.731712 258.962219,102.654533 
	C262.062225,103.500366 264.127106,103.603172 263.364410,99.826958 
	C272.323303,95.497925 281.282166,91.168884 290.848145,87.101669 
	C292.269348,87.566742 293.083466,87.769997 293.975739,88.424591 
	C294.004181,91.929100 293.954498,94.982277 293.684082,98.380669 
	C293.610718,104.138832 293.758118,109.551773 293.987610,115.344376 
	C294.013489,116.494743 293.957245,117.265472 293.744873,118.203613 
	C293.698547,118.903778 293.808350,119.436539 293.990570,120.434937 
	C294.013916,129.277908 293.964783,137.655243 293.693268,146.378143 
	C293.618805,153.805023 293.766724,160.886337 293.988678,168.433182 
	C294.010681,177.277496 293.958679,185.656281 293.695679,194.334091 
	C293.627960,196.744568 293.771210,198.855988 293.997375,201.308380 
	C294.025024,202.110550 293.969757,202.571777 293.703217,203.331741 
	C293.628235,205.741364 293.764557,207.852234 293.983124,210.365540 
	C294.010345,211.857452 293.955322,212.946930 293.743835,214.203140 
	C293.694977,214.902283 293.802521,215.434708 293.983887,216.432755 
	C294.012970,227.274536 293.968292,237.650681 293.840759,248.135345 
	C293.622406,248.483475 293.662628,248.721588 293.954315,249.180206 
	C294.029968,249.402237 294.021759,249.871292 294.021759,249.871292 
	C290.890778,251.231613 287.759766,252.591934 284.288818,253.927460 
	C283.948853,253.902695 283.819305,253.855133 283.819305,253.855133 
	C283.819305,253.855133 284.034271,253.982498 284.034271,253.982498 
z"/>
<path fill="#BABABA" opacity="1.000000" stroke="none" 
	d="
M293.914490,203.033005 
	C293.969757,202.571777 294.025024,202.110550 294.044250,200.876923 
	C293.974365,198.081360 293.940521,196.058212 293.906677,194.035049 
	C293.958679,185.656281 294.010681,177.277496 294.034790,167.968689 
	C293.976471,160.036606 293.946075,153.034592 293.915680,146.032562 
	C293.964783,137.655243 294.013916,129.277908 294.033173,120.113525 
	C293.969208,118.896378 293.935089,118.466286 293.900970,118.036194 
	C293.957245,117.265472 294.013489,116.494743 294.033325,114.881058 
	C293.966187,108.703888 293.935486,103.369667 293.904785,98.035454 
	C293.954498,94.982277 294.004181,91.929100 294.032349,88.055397 
	C293.842743,86.805664 293.674744,86.376465 293.506714,85.947266 
	C294.007568,86.928986 294.934235,87.906509 294.943939,88.893059 
	C295.051880,99.867256 295.023926,110.842842 295.021210,121.818062 
	C295.010803,163.557449 294.997284,205.296829 294.975922,247.036209 
	C294.975494,247.863037 294.864838,248.689789 294.413696,249.693939 
	C294.021759,249.871292 294.029968,249.402237 294.011536,248.949600 
	C293.993073,248.496964 293.923615,248.026840 293.923615,248.026840 
	C293.968292,237.650681 294.012970,227.274536 294.029419,216.112030 
	C293.967529,214.895920 293.933899,214.466171 293.900269,214.036423 
	C293.955322,212.946930 294.010345,211.857452 294.032288,209.934540 
	C293.970947,207.078430 293.942719,205.055710 293.914490,203.033005 
z"/>
<path fill="#1A1A1A" opacity="1.000000" stroke="none" 
	d="
M247.706329,109.132019 
	C248.002808,109.264969 247.963028,109.510399 247.851166,109.549446 
	C240.065445,112.267853 240.928436,118.682465 240.966827,124.999313 
	C241.096100,146.273376 241.021912,167.548721 240.998535,188.823532 
	C240.996719,190.474350 241.192749,192.300522 240.575256,193.734436 
	C239.653717,195.874359 238.149567,196.730804 237.157257,193.216034 
	C237.480789,192.870590 237.808853,192.892731 238.821350,192.883698 
	C239.663879,191.366577 239.957123,189.895767 239.957748,188.424835 
	C239.968704,162.963959 239.943680,137.503067 239.926514,112.042175 
	C242.396500,111.077507 244.866455,110.112839 247.706329,109.132019 
z"/>
<path fill="#BBBBBB" opacity="1.000000" stroke="none" 
	d="
M68.078133,149.970352 
	C68.026711,151.706604 67.975281,153.442871 67.960121,155.997955 
	C68.029259,157.866241 68.062134,158.915680 68.095009,159.965134 
	C68.036324,165.276718 67.977646,170.588318 67.939095,176.355225 
	C67.639565,176.174133 67.040260,175.537643 67.040421,174.901337 
	C67.047821,145.469910 67.107506,116.038498 67.540634,86.660477 
	C67.980728,87.133759 68.041328,87.553658 68.101929,87.973557 
	C68.044411,91.025612 67.986885,94.077660 67.964172,98.026031 
	C68.031502,101.603065 68.064041,104.283791 68.096573,106.964516 
	C68.040237,110.681847 67.983902,114.399178 67.967560,118.808426 
	C68.007561,119.500336 68.084236,119.970840 68.084236,119.970840 
	C68.031044,128.682129 67.977852,137.393433 67.959396,146.934616 
	C68.022133,148.499786 68.050133,149.235077 68.078133,149.970352 
z"/>
<path fill="#191919" opacity="1.000000" stroke="none" 
	d="
M123.508301,193.650879 
	C123.324226,194.313431 123.038567,194.859100 122.752914,195.404770 
	C122.174828,194.119781 121.096657,192.836395 121.092575,191.549591 
	C121.012856,166.415909 121.056061,141.281830 121.094749,116.147858 
	C121.095490,115.668739 121.345421,115.189995 121.736198,114.832809 
	C122.006805,139.314758 122.000992,163.675034 122.076080,188.035049 
	C122.081230,189.706924 122.691383,191.376938 123.020180,193.047806 
	C123.168617,193.194275 123.297462,193.356339 123.508301,193.650879 
z"/>
<path fill="#A7A7A7" opacity="1.000000" stroke="none" 
	d="
M185.103119,148.960022 
	C185.053635,149.424667 185.004135,149.889297 184.990051,151.154633 
	C185.050980,155.622086 185.076508,159.288864 185.102036,162.955643 
	C185.051590,164.371857 185.001129,165.788086 185.000580,167.852478 
	C185.050491,168.500641 185.100952,168.960114 185.100952,168.960114 
	C185.035538,176.677124 184.970123,184.394135 184.973541,192.804962 
	C185.042389,193.498795 185.106186,193.958878 185.106186,193.958878 
	C185.055313,194.732269 185.004440,195.505646 184.986923,197.117065 
	C185.046356,201.622467 185.072449,205.289825 185.098526,208.957184 
	C185.041367,211.680176 184.984192,214.403183 184.959259,217.812393 
	C184.991501,218.498611 185.071793,218.970673 185.071808,218.970673 
	C185.008759,219.425797 184.945724,219.880920 184.930695,220.917419 
	C184.978683,221.498810 185.134521,221.962357 185.134521,221.962357 
	C185.107193,222.135223 185.079849,222.308075 185.026428,222.742157 
	C184.683395,222.330917 184.090698,221.659073 184.089249,220.985931 
	C184.033417,195.200928 184.030396,169.415802 184.033386,143.630692 
	C184.033432,143.152054 184.190460,142.673447 184.274246,142.194824 
	C184.484543,142.255280 184.694839,142.315720 184.988373,142.671494 
	C185.022476,143.428879 184.973328,143.890945 184.979446,144.925278 
	C185.034714,145.497559 185.113327,145.956512 185.113327,145.956512 
	C185.069855,146.422501 185.026398,146.888504 185.014252,147.928177 
	C185.045578,148.501862 185.103119,148.960022 185.103119,148.960022 
z"/>
<path fill="#8A8A8A" opacity="1.000000" stroke="none" 
	d="
M239.541382,112.239716 
	C239.943680,137.503067 239.968704,162.963959 239.957748,188.424835 
	C239.957123,189.895767 239.663879,191.366577 239.061523,192.943146 
	C238.747528,185.099091 238.954681,177.149704 238.994919,169.199478 
	C239.090683,150.278961 239.107529,131.358032 239.541382,112.239716 
z"/>
<path fill="#8A8A8A" opacity="1.000000" stroke="none" 
	d="
M123.013451,192.576050 
	C122.691383,191.376938 122.081230,189.706924 122.076080,188.035049 
	C122.000992,163.675034 122.006805,139.314758 121.962357,114.488205 
	C121.931412,114.021873 122.051857,113.632484 122.042648,113.428894 
	C122.361320,115.049484 122.970146,116.872978 122.974617,118.697952 
	C123.034569,143.166611 123.010170,167.635468 123.013451,192.576050 
z"/>
<path fill="#BBBBBB" opacity="1.000000" stroke="none" 
	d="
M67.555290,193.333466 
	C67.932770,211.436615 67.904686,229.681870 67.904160,248.385010 
	C67.629784,248.014526 67.065063,247.186310 67.064606,246.357758 
	C67.054832,228.730362 67.108459,211.102966 67.555290,193.333466 
z"/>
<path fill="#131313" opacity="1.000000" stroke="none" 
	d="
M177.147812,193.090332 
	C176.972946,185.251724 176.798080,177.413132 177.087280,169.270844 
	C177.551376,168.967178 177.952545,168.900009 177.952545,168.900009 
	C177.959763,176.650085 177.966995,184.400162 177.762573,192.591644 
	C177.550903,193.033035 177.147812,193.090332 177.147812,193.090332 
z"/>
<path fill="#A7A7A7" opacity="1.000000" stroke="none" 
	d="
M177.117920,193.460556 
	C177.147812,193.090332 177.550903,193.033035 177.751724,193.066422 
	C177.912537,202.535690 177.872543,211.971573 177.485138,221.641052 
	C177.137726,221.874664 177.171097,221.933395 177.127167,221.693970 
	C177.083252,221.454529 176.971924,221.011826 176.971924,221.011826 
	C177.004883,220.553833 177.037842,220.095825 177.028900,219.067841 
	C176.987015,218.497864 176.926804,218.029984 176.926804,218.029984 
	C176.968811,217.258987 177.010818,216.487976 177.014328,214.946548 
	C176.948914,213.132431 176.921997,212.088745 176.895081,211.045059 
	C176.944168,210.579041 176.993271,210.113022 177.009644,208.842804 
	C176.950409,204.040497 176.923904,200.042404 176.897400,196.044296 
	C176.960953,195.306458 177.024490,194.568619 177.117920,193.460556 
z"/>
<path fill="#A7A7A7" opacity="1.000000" stroke="none" 
	d="
M177.983093,168.438553 
	C177.952545,168.900009 177.551376,168.967178 177.350067,168.938171 
	C177.115677,168.471405 177.082581,168.033646 177.010345,166.811584 
	C176.941742,160.035034 176.912277,154.042770 176.882812,148.050522 
	C176.930038,147.584366 176.977264,147.118225 177.010330,145.908096 
	C176.962296,144.103882 176.928421,143.043640 176.894531,141.983398 
	C177.266083,143.221756 177.942047,144.455933 177.959198,145.699173 
	C178.061630,153.123993 178.012146,160.550888 177.983093,168.438553 
z"/>
<path fill="#1A1A1A" opacity="1.000000" stroke="none" 
	d="
M256.450989,103.908691 
	C255.853790,108.235817 251.875565,107.897194 248.457916,109.045288 
	C250.760162,107.375908 253.432449,105.663666 256.450989,103.908691 
z"/>
<path fill="#1A1A1A" opacity="1.000000" stroke="none" 
	d="
M263.112915,99.945618 
	C264.127106,103.603172 262.062225,103.500366 259.225739,102.447876 
	C260.277466,101.506149 261.569427,100.785217 263.112915,99.945618 
z"/>
<path fill="#191919" opacity="1.000000" stroke="none" 
	d="
M119.794746,111.732086 
	C117.704330,110.930397 115.406342,109.864632 112.983253,108.479103 
	C115.101166,109.262222 117.344170,110.365112 119.794746,111.732086 
z"/>
<path fill="#131313" opacity="1.000000" stroke="none" 
	d="
M176.660217,142.010788 
	C176.928421,143.043640 176.962296,144.103882 176.947235,145.560715 
	C176.344116,145.038422 175.789963,144.119537 175.206345,142.851486 
	C175.593231,142.347610 176.009567,142.192902 176.660217,142.010788 
z"/>
<path fill="#191919" opacity="1.000000" stroke="none" 
	d="
M109.069122,106.335754 
	C108.191559,106.311737 107.213181,105.976883 106.104095,105.336746 
	C106.971703,105.362633 107.970009,105.693779 109.069122,106.335754 
z"/>
<path fill="#131313" opacity="1.000000" stroke="none" 
	d="
M293.227722,85.898743 
	C293.674744,86.376465 293.842743,86.805664 293.954163,87.604065 
	C293.083466,87.769997 292.269348,87.566742 291.234619,87.125526 
	C291.658905,86.541779 292.303802,86.195992 293.227722,85.898743 
z"/>
<path fill="#131313" opacity="1.000000" stroke="none" 
	d="
M68.379059,87.963638 
	C68.041328,87.553658 67.980728,87.133759 67.869385,86.399338 
	C68.409889,86.265610 69.001144,86.446396 69.804024,86.860909 
	C69.562492,87.380997 69.109344,87.667366 68.379059,87.963638 
z"/>
<path fill="#131313" opacity="1.000000" stroke="none" 
	d="
M68.089691,249.604431 
	C68.259979,249.616394 68.496582,249.705383 68.594803,249.869690 
	C68.456413,249.945038 68.156013,249.681442 68.089691,249.604431 
z"/>
<path fill="#191919" opacity="1.000000" stroke="none" 
	d="
M111.935387,107.808990 
	C111.846893,107.908569 111.659729,107.867668 111.195419,107.750244 
	C111.224426,107.671989 111.530571,107.670258 111.935387,107.808990 
z"/>
<path fill="#1A1A1A" opacity="1.000000" stroke="none" 
	d="
M257.640381,103.000656 
	C257.627563,103.095795 257.418945,103.289223 257.081177,103.653549 
	C257.008179,103.504822 257.172363,103.262993 257.640381,103.000656 
z"/>
<path fill="#131313" opacity="1.000000" stroke="none" 
	d="
M186.885986,142.649109 
	C186.853317,142.782242 186.684555,142.831543 186.260132,142.945526 
	C186.146759,142.656693 186.395233,142.508377 186.885986,142.649109 
z"/>
<path fill="#191919" opacity="1.000000" stroke="none" 
	d="
M105.005859,103.612732 
	C104.906380,103.606789 104.690887,103.404778 104.300613,103.066391 
	C104.443092,102.996590 104.697754,103.158798 105.005859,103.612732 
z"/>
<path fill="#131313" opacity="1.000000" stroke="none" 
	d="
M176.659973,148.394302 
	C176.912277,154.042770 176.941742,160.035034 176.933777,166.491333 
	C176.743271,160.882950 176.590210,154.810516 176.659973,148.394302 
z"/>
<path fill="#131313" opacity="1.000000" stroke="none" 
	d="
M176.673157,196.381165 
	C176.923904,200.042404 176.950409,204.040497 176.937073,208.497009 
	C176.747787,204.876297 176.598343,200.797165 176.673157,196.381165 
z"/>
<path fill="#131313" opacity="1.000000" stroke="none" 
	d="
M68.311264,106.644180 
	C68.064041,104.283791 68.031502,101.603065 68.042389,98.477379 
	C68.232529,100.796227 68.379242,103.560036 68.311264,106.644180 
z"/>
<path fill="#131313" opacity="1.000000" stroke="none" 
	d="
M68.294418,159.725037 
	C68.062134,158.915680 68.029259,157.866241 68.043381,156.425201 
	C68.224861,157.184067 68.359344,158.334503 68.294418,159.725037 
z"/>
<path fill="#131313" opacity="1.000000" stroke="none" 
	d="
M176.691071,211.281189 
	C176.921997,212.088745 176.948914,213.132431 176.937500,214.566116 
	C176.761795,213.809845 176.624420,212.663574 176.691071,211.281189 
z"/>
<path fill="#131313" opacity="1.000000" stroke="none" 
	d="
M68.268188,149.763916 
	C68.050133,149.235077 68.022133,148.499786 68.042130,147.398987 
	C68.212830,147.874802 68.335533,148.716141 68.268188,149.763916 
z"/>
<path fill="#131313" opacity="1.000000" stroke="none" 
	d="
M68.152481,119.855240 
	C68.084236,119.970840 68.007561,119.500336 68.048843,119.265579 
	C68.296616,119.259781 68.340149,119.496056 68.152481,119.855240 
z"/>
<path fill="#000000" opacity="1.000000" stroke="none" 
	d="
M110.013626,270.024353 
	C110.027122,270.039978 110.081253,269.925232 110.024399,269.954376 
	C109.967537,269.983521 110.000122,270.008698 110.013626,270.024353 
z"/>
<path fill="#131313" opacity="1.000000" stroke="none" 
	d="
M175.993958,221.994308 
	C175.993958,221.994308 175.878540,222.050858 175.939270,222.025421 
	C176.000000,222.000000 175.993958,221.994308 175.993958,221.994308 
z"/>
<path fill="#131313" opacity="1.000000" stroke="none" 
	d="
M176.758209,221.120331 
	C176.971924,221.011826 177.083252,221.454529 177.152771,221.671906 
	C177.017593,221.907196 176.812927,221.925110 176.301117,221.968658 
	C175.993958,221.994308 176.000000,222.000000 176.002594,222.003571 
	C176.102127,221.690292 176.281906,221.430862 176.758209,221.120331 
z"/>
<path fill="#131313" opacity="1.000000" stroke="none" 
	d="
M176.847107,218.140686 
	C176.926804,218.029984 176.987015,218.497864 176.947357,218.730377 
	C176.682709,218.736969 176.635941,218.499802 176.847107,218.140686 
z"/>
<path fill="#131313" opacity="1.000000" stroke="none" 
	d="
M293.693268,146.378143 
	C293.946075,153.034592 293.976471,160.036606 293.960785,167.503143 
	C293.766724,160.886337 293.618805,153.805023 293.693268,146.378143 
z"/>
<path fill="#131313" opacity="1.000000" stroke="none" 
	d="
M293.684052,98.380669 
	C293.935486,103.369667 293.966187,108.703888 293.951172,114.501411 
	C293.758118,109.551773 293.610718,104.138832 293.684052,98.380669 
z"/>
<path fill="#131313" opacity="1.000000" stroke="none" 
	d="
M185.325714,162.621704 
	C185.076508,159.288864 185.050980,155.622086 185.062866,151.499420 
	C185.249985,154.791626 185.399689,158.539688 185.325714,162.621704 
z"/>
<path fill="#131313" opacity="1.000000" stroke="none" 
	d="
M185.322800,208.623444 
	C185.072449,205.289825 185.046356,201.622467 185.060364,197.499390 
	C185.249329,200.792343 185.398209,204.541016 185.322800,208.623444 
z"/>
<path fill="#131313" opacity="1.000000" stroke="none" 
	d="
M293.703186,203.331741 
	C293.942719,205.055710 293.970947,207.078430 293.950012,209.532135 
	C293.764557,207.852234 293.628235,205.741364 293.703186,203.331741 
z"/>
<path fill="#131313" opacity="1.000000" stroke="none" 
	d="
M293.695679,194.334091 
	C293.940521,196.058212 293.974365,198.081360 293.961334,200.535980 
	C293.771210,198.855988 293.627960,196.744568 293.695679,194.334091 
z"/>
<path fill="#131313" opacity="1.000000" stroke="none" 
	d="
M293.743835,214.203140 
	C293.933899,214.466171 293.967529,214.895920 293.955627,215.646393 
	C293.802521,215.434708 293.694977,214.902283 293.743835,214.203140 
z"/>
<path fill="#131313" opacity="1.000000" stroke="none" 
	d="
M293.744873,118.203613 
	C293.935089,118.466286 293.969208,118.896378 293.960724,119.647881 
	C293.808350,119.436539 293.698547,118.903778 293.744873,118.203613 
z"/>
<path fill="#131313" opacity="1.000000" stroke="none" 
	d="
M185.351654,221.973938 
	C185.134521,221.962357 184.978683,221.498810 185.004120,221.255615 
	C185.345551,221.113693 185.598053,221.300690 185.893433,221.786774 
	C185.999817,222.000137 186.003601,221.994583 186.003601,221.994583 
	C186.003601,221.994583 185.568802,221.985535 185.351654,221.973938 
z"/>
<path fill="#000000" opacity="1.000000" stroke="none" 
	d="
M284.018005,253.994965 
	C284.034271,253.982498 283.819305,253.855133 283.819305,253.855133 
	C283.819305,253.855133 283.948853,253.902695 283.961884,253.970642 
	C283.974915,254.038574 284.001740,254.007431 284.018005,253.994965 
z"/>
<path fill="#131313" opacity="1.000000" stroke="none" 
	d="
M185.180511,168.850372 
	C185.100952,168.960114 185.050491,168.500641 185.079620,168.271362 
	C185.342804,168.259125 185.393250,168.491974 185.180511,168.850372 
z"/>
<path fill="#131313" opacity="1.000000" stroke="none" 
	d="
M293.840759,248.135345 
	C293.923615,248.026840 293.993073,248.496964 293.935852,248.727570 
	C293.662628,248.721588 293.622406,248.483475 293.840759,248.135345 
z"/>
<path fill="#131313" opacity="1.000000" stroke="none" 
	d="
M185.996246,222.002686 
	C185.992676,222.005249 186.220993,222.109085 186.220993,222.109085 
	C186.220993,222.109085 186.069412,222.112473 186.036499,222.053528 
	C186.003601,221.994583 185.999817,222.000137 185.996246,222.002686 
z"/>
<path fill="#131313" opacity="1.000000" stroke="none" 
	d="
M185.184448,193.848511 
	C185.106186,193.958878 185.042389,193.498795 185.066986,193.267853 
	C185.323608,193.252136 185.380646,193.485886 185.184448,193.848511 
z"/>
<path fill="#131313" opacity="1.000000" stroke="none" 
	d="
M185.159378,218.857849 
	C185.071793,218.970673 184.991501,218.498611 185.025787,218.261673 
	C185.324799,218.241028 185.387100,218.481140 185.159378,218.857849 
z"/>
<path fill="#131313" opacity="1.000000" stroke="none" 
	d="
M185.187241,148.853363 
	C185.103119,148.960022 185.045578,148.501862 185.082855,148.274017 
	C185.355392,148.264908 185.405792,148.498428 185.187241,148.853363 
z"/>
<path fill="#131313" opacity="1.000000" stroke="none" 
	d="
M185.198517,145.846390 
	C185.113327,145.956512 185.034714,145.497559 185.061157,145.266251 
	C185.348099,145.242722 185.413467,145.476486 185.198517,145.846390 
z"/>
</svg>