<svg xmlns:dc="http://purl.org/dc/elements/1.1/" xmlns:cc="http://creativecommons.org/ns#" xmlns:rdf="http://www.w3.org/1999/02/22-rdf-syntax-ns#" xmlns:svg="http://www.w3.org/2000/svg" xmlns="http://www.w3.org/2000/svg" xmlns:sodipodi="http://sodipodi.sourceforge.net/DTD/sodipodi-0.dtd" xmlns:inkscape="http://www.inkscape.org/namespaces/inkscape" version="1.1" x="0px" y="0px" viewBox="0 0 100 125"><g transform="translate(0,-952.36218)"><path style="text-indent:0;text-transform:none;direction:ltr;block-progression:tb;baseline-shift:baseline;color:#000000;enable-background:accumulate;" d="m 18.093723,974.70721 -1,2.9999 c -0.336262,0.9822 0.241202,2.1816 1.21875,2.5312 l 26.46875,9.7185 -3.8125,5.4061 c -4.068483,-0.2717 -8.44335,0.5289 -11.6875,1.375 -6.835172,2.0216 -13.364903,3.96779 -19.4062496,7.31229 -1.249338,0.6996 -2.304184,1.3887 -3.15625,2.1562 -0.852066,0.7674 -1.71875,1.6564 -1.71875,3.1563 0.0025,0.4784 0.183597,0.9537 0.5,1.3125 -0.534114,1.4983 -0.607555,3.1279 -0.3125,4.6874 0.491758,2.599 1.852902,5.1609 3.625,7.4686 3.5441966,4.6151 8.6963466,8.5309 13.8749996,8.531 l 56.25,0 c 2.28083,0 4.41138,-1.1139 6.5625,-2.6561 2.15112,-1.5424 4.26785,-3.6027 5.96875,-5.9062 1.7009,-2.3034 3.00301,-4.8612 3.406248,-7.4998 0.22827,-1.4937 0.10109,-3.0638 -0.468748,-4.4999 0.378618,-0.3744 0.597798,-0.905 0.593748,-1.4375 0,-1.6666 -0.706648,-3.1414 -1.624998,-4.6248 -2.11465,-3.1467 -4.71313,-5.87769 -7.75,-7.78099 -2.05233,-1.1489 -3.51586,-1.5938 -5.625,-1.5938 l 0,-11.0622 c 0,-1.6957 -0.25939,-3.3219 -1.4375,-4.4999 -1.17811,-1.1781 -2.80427,-1.4375 -4.5,-1.4375 -6.74454,0 -13.51912,0 -20.25,0 -0.57018,0.058 -1.10909,0.3741 -1.4375,0.8438 l -3.09375,4.4061 -28.625,-10.156 c -1.168897,-0.3744 -1.996791,0.4202 -2.5625,1.2498 z m 36.9375,7.6562 19.03125,0 c 1.24183,0 1.59997,0.2251 1.65625,0.2812 0.0563,0.056 0.28125,0.4144 0.28125,1.6563 l 0,11.0622 -30.15625,0 z m -18.03125,16.9996 44,0 c 0.33332,0 1.35849,0.2934 2.5,0.99999 2.76144,1.8738 5.13404,4.1479 6.71875,6.9998 l -78.0625,0 c 5.940415,-2.9662 11.931293,-5.1382 18.125,-6.781 3.019893,-0.79309 5.663217,-1.21879 6.71875,-1.21879 z m -27.3124996,11.99969 80.3437496,0 c 0.81905,0.9207 1.12443,1.9159 0.90625,3.3437 -0.25578,1.6736 -1.25019,3.7721 -2.6875,5.7186 -1.43731,1.9464 -3.29086,3.7608 -5.0625,5.0311 -1.77164,1.2701 -3.51815,1.9062 -4.25,1.9062 l -56.25,0 c -2.855167,0 -7.735469,-3.0838 -10.71875,-6.9686 -1.49164,-1.9423 -2.5195736,-4.0364 -2.8437496,-5.7499 -0.265747,-1.4045 -0.03748,-2.4081 0.5625,-3.2811 z m 13.3124996,1.9999 c -3.290016,0 -6,2.71 -6,5.9999 0,3.2899 2.709984,5.9998 6,5.9998 3.290016,0 6,-2.7099 6,-5.9998 0,-3.2899 -2.709984,-5.9999 -6,-5.9999 z m 18,0 c -3.290016,0 -6,2.71 -6,5.9999 0,3.2899 2.709984,5.9998 6,5.9998 3.290016,0 6,-2.7099 6,-5.9998 0,-3.2899 -2.709984,-5.9999 -6,-5.9999 z m 18,0 c -3.29002,0 -6,2.71 -6,5.9999 0,3.2899 2.70998,5.9998 6,5.9998 3.29002,0 6,-2.7099 6,-5.9998 0,-3.2899 -2.70998,-5.9999 -6,-5.9999 z m 18,0 c -3.29002,0 -6,2.71 -6,5.9999 0,3.2899 2.70998,5.9998 6,5.9998 3.29002,0 6,-2.7099 6,-5.9998 0,-3.2899 -2.70998,-5.9999 -6,-5.9999 z m -54,3.9999 c 1.128256,0 2,0.8718 2,2 0,1.1282 -0.871744,1.9999 -2,1.9999 -1.128256,0 -2,-0.8717 -2,-1.9999 0,-1.1282 0.871744,-2 2,-2 z m 18,0 c 1.128256,0 2,0.8718 2,2 0,1.1282 -0.871744,1.9999 -2,1.9999 -1.128256,0 -2,-0.8717 -2,-1.9999 0,-1.1282 0.871744,-2 2,-2 z m 18,0 c 1.12826,0 2,0.8718 2,2 0,1.1283 -0.87174,1.9999 -2,1.9999 -1.12826,0 -2,-0.8716 -2,-1.9999 0,-1.1282 0.87174,-2 2,-2 z m 18,0 c 1.12826,0 2,0.8718 2,2 0,1.1283 -0.87174,1.9999 -2,1.9999 -1.12826,0 -2,-0.8716 -2,-1.9999 0,-1.1282 0.87174,-2 2,-2 z" fill="#000000" fill-opacity="1" stroke="none" marker="none" visibility="visible" display="inline" overflow="visible"/></g><text x="0" y="115" fill="#000000" font-size="5px" font-weight="bold" font-family="'Helvetica Neue', Helvetica, Arial-Unicode, Arial, Sans-serif">Created by zidney</text><text x="0" y="120" fill="#000000" font-size="5px" font-weight="bold" font-family="'Helvetica Neue', Helvetica, Arial-Unicode, Arial, Sans-serif">from the Noun Project</text></svg>